<svg width="512" height="512" viewBox="0 0 512 512" fill="none" xmlns="http://www.w3.org/2000/svg">
<rect width="512" height="512" fill="#E3E3E3"/>
<g clip-path="url(#clip0_1002_207)">
<path d="M361 273.5H273.5V361C273.5 370.625 265.625 378.5 256 378.5C246.375 378.5 238.5 370.625 238.5 361V273.5H151C141.375 273.5 133.5 265.625 133.5 256C133.5 246.375 141.375 238.5 151 238.5H238.5V151C238.5 141.375 246.375 133.5 256 133.5C265.625 133.5 273.5 141.375 273.5 151V238.5H361C370.625 238.5 378.5 246.375 378.5 256C378.5 265.625 370.625 273.5 361 273.5Z" fill="#808080"/>
</g>
<defs>
<clipPath id="clip0_1002_207">
<rect width="245" height="245" fill="white" transform="translate(134 134)"/>
</clipPath>
</defs>
</svg>
