<svg width="192" height="192" viewBox="0 0 192 192" fill="none" xmlns="http://www.w3.org/2000/svg">
<g clip-path="url(#clip0)">
<path d="M144 96C144 122.501 122.501 144 96 144C69.4992 144 48 122.501 48 96C48 69.4992 69.4992 48 96 48C122.501 48 144 69.4992 144 96Z" fill="white"/>
<path d="M131.184 121.008L92.016 191.904C40.848 189.84 0 147.648 0 96C0 43.008 43.008 0 96 0V52.8C72.144 52.8 52.8 72.144 52.8 96C52.8 119.856 72.144 139.2 96 139.2C110.544 139.2 123.36 132.048 131.184 121.008Z" fill="url(#paint0_linear)"/>
<path d="M192.001 96C192.001 149.04 149.041 192 96.0008 192H91.9688L131.185 121.008C136.225 113.952 139.201 105.312 139.201 96C139.201 72.144 119.857 52.8 96.0008 52.8V0C133.489 0 165.841 21.504 181.681 52.8C188.209 65.808 192.001 80.448 192.001 96Z" fill="url(#paint1_linear)"/>
<path d="M181.632 52.8H96C72.144 52.8 52.8 72.144 52.8 96C52.8 103.152 54.528 109.872 57.648 115.824H57.6L15.168 44.448H15.072C32.064 17.712 61.968 0 96 0C133.44 0 165.84 21.504 181.632 52.8Z" fill="url(#paint2_linear)"/>
<path d="M129.6 95.9999C129.6 114.561 114.561 129.6 95.9999 129.6C77.4383 129.6 62.3999 114.561 62.3999 95.9999C62.3999 77.4383 77.4383 62.3999 95.9999 62.3999C114.561 62.3999 129.6 77.4383 129.6 95.9999Z" fill="url(#paint3_linear)"/>
</g>
<defs>
<linearGradient id="paint0_linear" x1="8.5872" y1="55.8912" x2="131.155" y2="121.061" gradientUnits="userSpaceOnUse">
<stop stop-color="#4CAF50"/>
<stop offset="0.489" stop-color="#4AAF50"/>
<stop offset="0.665" stop-color="#43AD50"/>
<stop offset="0.79" stop-color="#38AA50"/>
<stop offset="0.892" stop-color="#27A550"/>
<stop offset="0.978" stop-color="#11A050"/>
<stop offset="1" stop-color="#0A9E50"/>
</linearGradient>
<linearGradient id="paint1_linear" x1="141.985" y1="192" x2="141.985" y2="53.7744" gradientUnits="userSpaceOnUse">
<stop stop-color="#FFD747"/>
<stop offset="0.482" stop-color="#FFD645"/>
<stop offset="0.655" stop-color="#FED43E"/>
<stop offset="0.779" stop-color="#FCCF33"/>
<stop offset="0.879" stop-color="#FAC922"/>
<stop offset="0.964" stop-color="#F7C10C"/>
<stop offset="1" stop-color="#F5BC00"/>
</linearGradient>
<linearGradient id="paint2_linear" x1="154.214" y1="8.1744" x2="36.3552" y2="81.8208" gradientUnits="userSpaceOnUse">
<stop stop-color="#F7572F"/>
<stop offset="0.523" stop-color="#F7552D"/>
<stop offset="0.712" stop-color="#F75026"/>
<stop offset="0.846" stop-color="#F7461B"/>
<stop offset="0.954" stop-color="#F7390A"/>
<stop offset="1" stop-color="#F73100"/>
</linearGradient>
<linearGradient id="paint3_linear" x1="72.2399" y1="72.2399" x2="119.76" y2="119.76" gradientUnits="userSpaceOnUse">
<stop stop-color="#2AA4F4"/>
<stop offset="1" stop-color="#007AD9"/>
</linearGradient>
<clipPath id="clip0">
<rect width="192" height="192" fill="white"/>
</clipPath>
</defs>
</svg>
