<svg width="512" height="512" viewBox="0 0 512 512" fill="none" xmlns="http://www.w3.org/2000/svg">
<g clip-path="url(#clip0)">
<path d="M381.552 258.792L415.293 225.154L381.552 191.517L391.839 181.264L435.866 225.154L391.839 269.045L381.552 258.792Z" fill="#E6E6E6"/>
<path d="M298.914 211.66H285.198V225.375H298.914V211.66Z" fill="#E6E6E6"/>
<path d="M354.051 211.66H340.335V225.375H354.051V211.66Z" fill="#E6E6E6"/>
<path d="M326.483 211.66H312.767V225.375H326.483V211.66Z" fill="#E6E6E6"/>
<path d="M266.614 258.45L232.839 224.812L266.579 191.174L256.293 180.922L212.299 224.812L256.327 268.702L266.614 258.45Z" fill="#E6E6E6"/>
<path d="M381.552 252.278L415.293 218.64L381.552 185.002L391.839 174.749L435.866 218.64L391.839 262.53L381.552 252.278Z" fill="#FF8F00"/>
<path d="M285.198 221.04H298.914V207.324H285.198L285.198 221.04ZM354.051 207.324H340.336V221.04H354.051V207.324ZM312.767 221.04H326.483V207.324H312.767V221.04Z" fill="#FF8F00"/>
<path d="M266.614 251.934L232.839 218.297L266.579 184.659L256.293 174.406L212.299 218.297L256.327 262.187L266.614 251.934Z" fill="#FF8F00"/>
<path d="M101.444 361.61L109.123 363.466L119.936 334.734L108.604 331.995L101.444 361.61Z" fill="#A0616A"/>
<path d="M97.8091 368.505L100.167 358.752L115.189 362.384C117.717 362.998 119.899 364.59 121.255 366.81C122.61 369.031 123.03 371.698 122.422 374.228L122.37 374.442L97.8091 368.505Z" fill="#2F2E41"/>
<path d="M135.435 366.841L143.334 366.84L147.092 336.372L135.434 336.372L135.435 366.841Z" fill="#A0616A"/>
<path d="M133.521 364.363L148.977 364.362H148.977C151.58 364.362 154.075 365.396 155.916 367.236C157.756 369.076 158.79 371.572 158.79 374.175V374.396L133.522 374.397L133.521 364.363Z" fill="#2F2E41"/>
<path d="M133.581 356.298L134.88 308.896L133.13 289.676L129.717 304.467L114.801 353.109L101.942 349.725L116.834 297.278L113.6 263.638L122.893 257.664L123.018 257.687L154.768 263.539L147.098 354.946L133.581 356.298Z" fill="#2F2E41"/>
<path d="M146.147 270.138C143.59 270.138 140.6 269.315 137.272 266.965C126.62 259.448 113.92 267.535 113.793 267.616L113.277 267.952L113.295 267.337C113.308 266.899 114.584 223.366 114.584 209.357C114.584 194.885 124.026 184.318 126.92 181.424C129.761 178.583 132.151 178.646 135.177 178.724C135.698 178.738 136.241 178.752 136.813 178.752C140.767 178.752 144.611 182.551 144.773 182.712L144.85 182.79L144.864 182.898L155.836 265.506L155.752 265.612C155.701 265.677 152.098 270.138 146.147 270.138Z" fill="#CCCCCC"/>
<path d="M152.378 165.641C156.57 157.972 153.752 148.356 146.083 144.164C138.414 139.972 128.799 142.79 124.606 150.459C120.414 158.128 123.233 167.744 130.902 171.936C138.57 176.128 148.186 173.31 152.378 165.641Z" fill="#A0616A"/>
<path d="M162.718 283.366C161.969 282.785 161.357 282.048 160.924 281.206C160.491 280.363 160.248 279.436 160.212 278.489C160.176 277.543 160.349 276.6 160.716 275.727C161.084 274.854 161.639 274.073 162.342 273.438L153.355 252.239L165.122 254.405L171.852 274.203C172.841 275.455 173.337 277.025 173.245 278.617C173.153 280.209 172.481 281.712 171.355 282.842C170.229 283.971 168.728 284.648 167.136 284.745C165.544 284.841 163.972 284.351 162.718 283.366V283.366Z" fill="#A0616A"/>
<path d="M160.172 271.299L143.933 238.172L136.813 213.239L136.819 191.579C136.835 191.494 138.509 183.068 144.713 183.651C150.339 184.196 153.369 186.947 154.844 192.85C156.098 197.864 154.384 212.74 154.218 214.144C155.306 216.725 171.638 255.638 168.934 260.323C168.833 260.506 168.686 260.659 168.507 260.766L171.401 266.876L160.172 271.299Z" fill="#CCCCCC"/>
<path d="M136.468 164.012C138.366 164.259 139.797 162.318 140.46 160.524C141.124 158.73 141.63 156.641 143.279 155.672C145.532 154.348 148.415 155.94 150.992 155.503C153.902 155.01 155.794 151.926 155.943 148.978C156.091 146.03 154.918 143.195 153.767 140.477L153.365 143.855C153.419 142.71 153.178 141.571 152.665 140.546C152.153 139.52 151.386 138.644 150.438 138L150.956 142.956C150.846 142.272 150.601 141.617 150.237 141.028C149.873 140.439 149.396 139.927 148.834 139.523C148.272 139.118 147.635 138.829 146.961 138.671C146.286 138.514 145.587 138.491 144.904 138.604L144.986 141.557C141.625 141.157 138.234 140.757 134.863 141.061C131.492 141.366 128.097 142.432 125.542 144.652C121.721 147.973 120.325 153.442 120.793 158.483C121.262 163.524 123.343 168.26 125.512 172.835C126.058 173.986 126.812 175.285 128.078 175.432C129.215 175.564 130.255 174.613 130.609 173.525C130.881 172.408 130.87 171.24 130.578 170.128C130.258 168.429 129.855 166.692 130.156 164.99C130.456 163.287 131.681 161.604 133.398 161.396C135.114 161.187 136.871 163.149 136.045 164.668L136.468 164.012Z" fill="#2F2E41"/>
<path d="M239.111 374.847H31.5448C31.4003 374.847 31.2617 374.79 31.1596 374.687C31.0574 374.585 31 374.447 31 374.302C31 374.158 31.0574 374.019 31.1596 373.917C31.2617 373.815 31.4003 373.757 31.5448 373.757H239.111C239.256 373.757 239.394 373.815 239.497 373.917C239.599 374.019 239.656 374.158 239.656 374.302C239.656 374.447 239.599 374.585 239.497 374.687C239.394 374.79 239.256 374.847 239.111 374.847Z" fill="#3F3D56"/>
</g>
<defs>
<clipPath id="clip0">
<rect width="450" height="236.985" fill="white" transform="translate(31 138)"/>
</clipPath>
</defs>
</svg>
