<svg width="512" height="512" viewBox="0 0 512 512" fill="none" xmlns="http://www.w3.org/2000/svg">
<g clip-path="url(#clip0)">
<path d="M146.612 225.092C169.151 225.092 187.423 206.821 187.423 184.282C187.423 161.743 169.151 143.471 146.612 143.471C124.073 143.471 105.802 161.743 105.802 184.282C105.802 206.821 124.073 225.092 146.612 225.092Z" fill="#FF6584"/>
<path d="M481 171.659V278.998C481.001 299.802 476.903 320.403 468.942 339.624C460.981 358.845 449.311 376.31 434.6 391.021C419.889 405.732 402.424 417.402 383.203 425.363C363.982 433.324 343.381 437.422 322.577 437.421H31V330.082C31 272.724 61.4843 222.481 107.14 194.679C115.008 189.883 123.282 185.789 131.866 182.442C136.918 180.469 142.07 178.76 147.3 177.325C147.402 177.291 147.509 177.262 147.611 177.238C149.157 176.815 150.712 176.416 152.276 176.042C152.364 176.018 152.447 175.998 152.534 175.979C162.178 173.681 172.017 172.293 181.92 171.834C183.091 171.78 184.262 171.736 185.443 171.712C185.866 171.698 186.294 171.688 186.726 171.688C187.62 171.668 188.519 171.659 189.423 171.659H481Z" fill="#3F3D56"/>
<path d="M240.935 368.25C125.235 368.25 31.3983 399.449 31.0049 437.985H450.866C450.473 399.449 356.636 368.25 240.935 368.25Z" fill="#F2F2F2"/>
<g opacity="0.1">
<path opacity="0.1" d="M202.059 421.084C223.53 421.084 240.935 416.249 240.935 410.285C240.935 404.321 223.53 399.486 202.059 399.486C180.587 399.486 163.182 404.321 163.182 410.285C163.182 416.249 180.587 421.084 202.059 421.084Z" fill="black"/>
</g>
<g opacity="0.1">
<path opacity="0.1" d="M286.13 401.646C307.601 401.646 325.007 396.811 325.007 390.846C325.007 384.882 307.601 380.047 286.13 380.047C264.659 380.047 247.253 384.882 247.253 390.846C247.253 396.811 264.659 401.646 286.13 401.646Z" fill="black"/>
</g>
<g opacity="0.1">
<path opacity="0.1" d="M202.059 420.004C221.383 420.004 237.048 415.653 237.048 410.285C237.048 404.917 221.383 400.566 202.059 400.566C182.735 400.566 167.069 404.917 167.069 410.285C167.069 415.653 182.735 420.004 202.059 420.004Z" fill="black"/>
</g>
<g opacity="0.1">
<path opacity="0.1" d="M286.13 400.566C305.454 400.566 321.119 396.214 321.119 390.847C321.119 385.479 305.454 381.127 286.13 381.127C266.806 381.127 251.141 385.479 251.141 390.847C251.141 396.214 266.806 400.566 286.13 400.566Z" fill="black"/>
</g>
<path d="M98.0629 218.33C99.9416 218.33 101.465 216.807 101.465 214.929C101.465 213.05 99.9416 211.527 98.0629 211.527C96.1841 211.527 94.6611 213.05 94.6611 214.929C94.6611 216.807 96.1841 218.33 98.0629 218.33Z" fill="#F2F2F2"/>
<path d="M390.612 351.484C392.49 351.484 394.013 349.961 394.013 348.082C394.013 346.203 392.49 344.68 390.612 344.68C388.733 344.68 387.21 346.203 387.21 348.082C387.21 349.961 388.733 351.484 390.612 351.484Z" fill="#F2F2F2"/>
<path d="M230.244 242.142C232.123 242.142 233.646 240.619 233.646 238.741C233.646 236.862 232.123 235.339 230.244 235.339C228.366 235.339 226.843 236.862 226.843 238.741C226.843 240.619 228.366 242.142 230.244 242.142Z" fill="#F2F2F2"/>
<path d="M398.873 220.274C399.946 220.274 400.816 219.404 400.816 218.331C400.816 217.257 399.946 216.387 398.873 216.387C397.799 216.387 396.929 217.257 396.929 218.331C396.929 219.404 397.799 220.274 398.873 220.274Z" fill="#FF6584"/>
<path d="M105.838 317.466C106.912 317.466 107.782 316.596 107.782 315.522C107.782 314.449 106.912 313.579 105.838 313.579C104.765 313.579 103.895 314.449 103.895 315.522C103.895 316.596 104.765 317.466 105.838 317.466Z" fill="#FF6584"/>
<path d="M76.6802 356.5H75.7948V355.614H75.6217V356.5H74.7363V356.673H75.6217V357.558H75.7948V356.673H76.6802V356.5Z" fill="#F2F2F2"/>
<path d="M360.967 284.578H360.082V283.692H359.909V284.578H359.023V284.751H359.909V285.636H360.082V284.751H360.967V284.578Z" fill="#F2F2F2"/>
<path d="M434.348 269.999H433.463V269.113H433.29V269.999H432.404V270.172H433.29V271.057H433.463V270.172H434.348V269.999Z" fill="#F2F2F2"/>
<path d="M276.411 308.876H275.525V307.99H275.352V308.876H274.467V309.049H275.352V309.934H275.525V309.049H276.411V308.876Z" fill="#F2F2F2"/>
<path d="M412.965 313.736H412.08V312.85H411.907V313.736H411.021V313.909H411.907V314.794H412.08V313.909H412.965V313.736Z" fill="#F2F2F2"/>
<path d="M248.225 334.632H247.34V333.746H247.167V334.632H246.281V334.805H247.167V335.69H247.34V334.805H248.225V334.632Z" fill="#F2F2F2"/>
<path d="M310.427 335.604H309.542V334.718H309.369V335.604H308.483V335.777H309.369V336.662H309.542V335.777H310.427V335.604Z" fill="#F2F2F2"/>
<path d="M77.6519 252.99H76.7664V252.105H76.5934V252.99H75.708V253.163H76.5934V254.049H76.7664V253.163H77.6519V252.99Z" fill="#F2F2F2"/>
<path d="M361.391 186.106H359.994V214.323H361.391V186.106Z" fill="#E6E6E6"/>
<path d="M328.286 261.118L315.435 290.731L317.949 294.922L317.111 296.318L322.978 299.391V297.715L325.213 297.157L334.711 279.835L328.286 261.118Z" fill="#E6E6E6"/>
<path d="M318.228 296.039C318.228 296.039 308.73 310.845 319.346 313.08C329.962 315.315 321.301 297.435 321.301 297.435L318.228 296.039Z" fill="#E6E6E6"/>
<path d="M331.917 289.334L328.565 300.23L327.168 314.198L324.653 319.227L327.447 341.856L331.917 346.326L333.873 368.676V378.733L339.181 387.952L332.345 397.654C332.023 398.11 331.83 398.645 331.787 399.202C331.744 399.758 331.853 400.316 332.101 400.816C332.35 401.316 332.73 401.739 333.199 402.041C333.669 402.342 334.212 402.511 334.77 402.529C336.279 402.568 338.269 402.142 340.857 400.803C348.959 396.613 348.679 392.702 348.679 392.702C348.679 392.702 353.708 392.702 353.987 388.79C354.267 384.879 350.914 356.942 350.914 356.942L347.841 344.929V312.243H348.959L349.517 340.18L352.032 350.516L352.311 354.986L355.943 399.686C355.943 399.686 372.147 404.156 372.985 400.524C373.823 396.892 366.839 394.657 366.839 394.657L371.029 386.555V370.911L369.632 367.558L367.118 344.929L371.308 340.459L373.543 337.665V315.316L370.75 306.655L369.912 299.391L365.442 288.217C365.442 288.217 345.047 281.512 331.917 289.334Z" fill="white"/>
<path d="M368.236 226.196C368.236 229.556 367.439 232.869 365.909 235.861C364.38 238.853 362.162 241.439 359.438 243.407C356.714 245.375 353.562 246.668 350.241 247.18C346.92 247.693 343.524 247.409 340.334 246.354C337.144 245.298 334.25 243.501 331.89 241.108C329.529 238.716 327.771 235.798 326.758 232.594C325.746 229.39 325.508 225.991 326.065 222.677C326.622 219.363 327.958 216.229 329.962 213.532L329.968 213.526C332.631 209.944 336.355 207.292 340.612 205.948C344.869 204.603 349.441 204.635 353.678 206.038C357.916 207.441 361.604 210.144 364.217 213.763C366.83 217.381 368.237 221.732 368.236 226.196V226.196Z" fill="#FF8F00"/>
<g opacity="0.1">
<path opacity="0.1" d="M365.218 217.393L363.486 227.313C350.47 193.526 329.766 214.281 329.408 214.644C331.548 211.766 334.382 209.477 337.645 207.991C340.909 206.504 344.496 205.869 348.071 206.143C351.647 206.418 355.095 207.593 358.093 209.561C361.091 211.528 363.543 214.222 365.218 217.393V217.393Z" fill="black"/>
</g>
<path d="M365.778 216.275L364.046 226.196C351.03 192.408 330.325 213.163 329.968 213.526C332.108 210.648 334.941 208.36 338.205 206.873C341.468 205.387 345.055 204.751 348.631 205.026C352.206 205.3 355.654 206.476 358.652 208.443C361.651 210.41 364.102 213.105 365.778 216.275V216.275Z" fill="white"/>
<path d="M362.867 212.087L365.777 222.19C365.777 222.19 359.736 240.299 331.718 240.93L330.8 243.517L327.727 244.355L326.33 250.222L330.241 287.378C330.241 287.378 328.565 291.01 331.359 290.731C331.359 290.731 349.797 284.585 365.722 290.172C365.722 290.172 369.074 291.569 368.236 288.496C368.236 288.496 379.411 281.511 378.573 274.248C377.735 266.984 379.411 233.18 379.411 233.18C379.411 233.18 381.087 223.402 376.058 221.167C376.058 221.167 368.673 210.829 362.867 212.087Z" fill="white"/>
<path d="M356.742 282.68C356.742 282.68 339.239 284.438 344.084 294.145C348.929 303.851 357.557 285.956 357.557 285.956L356.742 282.68Z" fill="#E6E6E6"/>
<path d="M365.722 239.327C365.722 239.327 362.649 242.958 363.766 248.825C364.884 254.692 369.074 267.822 369.074 267.822L354.268 281.512L358.738 287.658L378.852 277.321L383.322 274.527C382.211 263.228 379.445 252.152 375.113 241.657L374.382 239.885C374.382 239.885 369.074 237.65 365.722 239.327Z" fill="#E6E6E6"/>
<path d="M364.325 229.409C367.179 229.409 369.493 227.095 369.493 224.24C369.493 221.386 367.179 219.072 364.325 219.072C361.47 219.072 359.156 221.386 359.156 224.24C359.156 227.095 361.47 229.409 364.325 229.409Z" fill="#E6E6E6"/>
<path d="M360.692 189.738C362.775 189.738 364.464 188.049 364.464 185.966C364.464 183.883 362.775 182.195 360.692 182.195C358.609 182.195 356.921 183.883 356.921 185.966C356.921 188.049 358.609 189.738 360.692 189.738Z" fill="#E6E6E6"/>
<path d="M264.748 245.215H263.862V244.33H263.689V245.215H262.804V245.388H263.689V246.273H263.862V245.388H264.748V245.215Z" fill="#F2F2F2"/>
<path d="M344.445 218.001H343.559V217.116H343.386V218.001H342.501V218.174H343.386V219.06H343.559V218.174H344.445V218.001Z" fill="#F2F2F2"/>
<path d="M335.698 226.262H334.812V225.377H334.639V226.262H333.754V226.435H334.639V227.321H334.812V226.435H335.698V226.262Z" fill="#F2F2F2"/>
<path d="M301.195 205.695C302.268 205.695 303.139 204.825 303.139 203.751C303.139 202.678 302.268 201.808 301.195 201.808C300.121 201.808 299.251 202.678 299.251 203.751C299.251 204.825 300.121 205.695 301.195 205.695Z" fill="#F2F2F2"/>
<path d="M205.44 217.453C205.44 353.058 188.388 353.058 167.36 353.058C156.488 353.058 146.681 353.058 139.745 334.326C137.751 328.942 135.989 322.001 134.513 313.065C131.187 292.979 129.28 262.794 129.28 217.453C129.28 200.018 131.344 182.925 134.513 166.961C136.036 159.275 137.815 151.857 139.745 144.782C142.105 136.119 144.692 127.974 147.303 120.521C149.053 115.51 150.82 110.807 152.535 106.464C160.459 86.418 167.36 74 167.36 74C167.36 74 205.44 142.561 205.44 217.453Z" fill="#F2F2F2"/>
<g opacity="0.1">
<path opacity="0.1" d="M152.535 106.463V342.883H147.303V120.521C149.053 115.51 150.82 110.806 152.535 106.463Z" fill="black"/>
</g>
<path d="M166.197 188.53C177.756 188.53 187.126 179.159 187.126 167.6C187.126 156.041 177.756 146.671 166.197 146.671C154.638 146.671 145.268 156.041 145.268 167.6C145.268 179.159 154.638 188.53 166.197 188.53Z" fill="#3F3D56"/>
<path d="M212.125 340.267C207.471 328.813 201.496 326.836 197.591 327.008V325.152H136.547V327.008C132.641 326.836 126.666 328.813 122.012 340.267C114.455 358.871 126.663 390.847 126.663 390.847C126.663 390.847 120.139 346.252 141.805 345.958C143.681 348.406 145.984 350.495 148.602 352.125V364.119H183.591V353.217C187.012 351.482 189.999 349.001 192.332 345.958C213.998 346.251 207.474 390.847 207.474 390.847C207.474 390.847 219.683 358.871 212.125 340.267Z" fill="#FF8F00"/>
<path d="M166.197 183.879C175.188 183.879 182.476 176.591 182.476 167.601C182.476 158.61 175.188 151.322 166.197 151.322C157.207 151.322 149.919 158.61 149.919 167.601C149.919 176.591 157.207 183.879 166.197 183.879Z" fill="#FF8F00"/>
<path d="M442.128 171.659H441.156C441.226 182.184 445.453 192.256 452.917 199.678C460.38 207.1 470.474 211.272 481 211.284V210.312C470.732 210.301 460.884 206.232 453.603 198.992C446.322 191.751 442.197 181.927 442.128 171.659V171.659Z" fill="#FF8F00"/>
<path d="M424.148 171.659H423.176C423.25 186.952 429.373 201.594 440.207 212.388C451.041 223.181 465.707 229.249 481 229.265V228.293C465.965 228.276 451.547 222.311 440.895 211.7C430.243 201.089 424.222 186.694 424.148 171.659V171.659Z" fill="#FF8F00"/>
<path d="M405.676 171.659H404.704C404.826 213.626 439.003 247.731 481 247.731V246.759C439.538 246.759 405.798 213.092 405.676 171.659Z" fill="#FF8F00"/>
</g>
<defs>
<clipPath id="clip0">
<rect width="450" height="363.985" fill="white" transform="translate(31 74)"/>
</clipPath>
</defs>
</svg>
