<svg width="192" height="192" viewBox="0 0 192 192" fill="none" xmlns="http://www.w3.org/2000/svg">
<g clip-path="url(#clip0)">
<path d="M13.0909 168H43.6364V93.8186L0 61.0913V154.909C0 162.153 5.86909 168 13.0909 168Z" fill="#4285F4"/>
<path d="M148.364 168H178.909C186.153 168 192 162.131 192 154.909V61.0913L148.364 93.8186" fill="#34A853"/>
<path d="M148.364 37.0909V93.8182L192 61.0909V43.6364C192 27.4473 173.52 18.2182 160.582 27.9273" fill="#FBBC04"/>
<path d="M43.6362 93.8186V37.0913L95.9999 76.364L148.363 37.0913V93.8186L95.9999 133.091" fill="#EA4335"/>
<path d="M0 43.6364V61.0909L43.6364 93.8182V37.0909L31.4182 27.9273C18.4582 18.2182 0 27.4473 0 43.6364Z" fill="#C5221F"/>
</g>
<defs>
<clipPath id="clip0">
<rect width="192" height="144" fill="white" transform="translate(0 24)"/>
</clipPath>
</defs>
</svg>
