<svg width="192" height="192" viewBox="0 0 192 192" fill="none" xmlns="http://www.w3.org/2000/svg">
<g clip-path="url(#clip0)">
<path d="M74.0033 143.997H26V178.909C26 182.381 27.3792 185.711 29.8342 188.166C32.2891 190.621 35.6188 192 39.0906 192H74.0033V143.997Z" fill="#00832D"/>
<path d="M74.0033 0H39.0906C35.6188 0 32.2891 1.37919 29.8342 3.83415C27.3792 6.28912 26 9.61877 26 13.0906L26 143.997H74.0033V48.0033H117.634V0H74.0033Z" fill="#FFBA00"/>
<path d="M165.638 143.997H117.634V192H152.547C156.019 192 159.348 190.621 161.803 188.166C164.258 185.711 165.638 182.381 165.638 178.909V143.997Z" fill="#0066DA"/>
<path d="M117.634 143.997H74.0034V192H117.634V143.997Z" fill="#00AC47"/>
<path d="M117.634 48.0034V143.997H165.638V48.0034H117.634Z" fill="#2684FC"/>
<path d="M117.634 0V48.0033H165.638L117.634 0Z" fill="#EA4335"/>
</g>
<defs>
<clipPath id="clip0">
<rect width="139.638" height="192" fill="white" transform="translate(26)"/>
</clipPath>
</defs>
</svg>
