<svg width="192" height="192" viewBox="0 0 192 192" fill="none" xmlns="http://www.w3.org/2000/svg">
<path d="M96.0313 0C55.9522 0 44.2306 0.0413461 41.9522 0.230357C33.7272 0.914044 28.6092 2.20906 23.0334 4.98516C18.7363 7.11891 15.3474 9.59229 12.0028 13.0595C5.91167 19.3824 2.22005 27.1614 0.88369 36.4082C0.233966 40.8972 0.0449557 41.8127 0.00656287 64.7421C-0.00820359 72.3852 0.00656287 82.4441 0.00656287 95.9362C0.00656287 135.983 0.0508622 147.693 0.242826 149.967C0.907317 157.97 2.16247 163.005 4.82043 168.513C9.90009 179.057 19.6016 186.971 31.0309 189.925C34.9883 190.944 39.3592 191.505 44.9704 191.77C47.3478 191.874 71.5796 191.948 95.8261 191.948C120.073 191.948 144.319 191.918 146.637 191.8C153.135 191.494 156.908 190.988 161.079 189.91C166.746 188.457 172.028 185.784 176.555 182.078C181.082 178.372 184.745 173.723 187.29 168.454C189.896 163.079 191.217 157.852 191.815 150.266C191.945 148.613 192 122.244 192 95.9111C192 69.5736 191.941 43.2539 191.811 41.6001C191.206 33.892 189.884 28.7089 187.194 23.2306C184.986 18.746 182.535 15.397 178.976 11.9726C172.626 5.90658 164.859 2.21497 155.602 0.880081C151.118 0.231833 150.224 0.0398694 127.277 0H96.0313Z" fill="url(#paint0_radial)"/>
<path d="M96.0313 0C55.9522 0 44.2306 0.0413461 41.9522 0.230357C33.7272 0.914044 28.6092 2.20906 23.0334 4.98516C18.7363 7.11891 15.3474 9.59229 12.0028 13.0595C5.91167 19.3824 2.22005 27.1614 0.88369 36.4082C0.233966 40.8972 0.0449557 41.8127 0.00656287 64.7421C-0.00820359 72.3852 0.00656287 82.4441 0.00656287 95.9362C0.00656287 135.983 0.0508622 147.693 0.242826 149.967C0.907317 157.97 2.16247 163.005 4.82043 168.513C9.90009 179.057 19.6016 186.971 31.0309 189.925C34.9883 190.944 39.3592 191.505 44.9704 191.77C47.3478 191.874 71.5796 191.948 95.8261 191.948C120.073 191.948 144.319 191.918 146.637 191.8C153.135 191.494 156.908 190.988 161.079 189.91C166.746 188.457 172.028 185.784 176.555 182.078C181.082 178.372 184.745 173.723 187.29 168.454C189.896 163.079 191.217 157.852 191.815 150.266C191.945 148.613 192 122.244 192 95.9111C192 69.5736 191.941 43.2539 191.811 41.6001C191.206 33.892 189.884 28.7089 187.194 23.2306C184.986 18.746 182.535 15.397 178.976 11.9726C172.626 5.90658 164.859 2.21497 155.602 0.880081C151.118 0.231833 150.224 0.0398694 127.277 0H96.0313Z" fill="url(#paint1_radial)"/>
<path d="M95.9869 25.103C76.7374 25.103 74.3216 25.1872 66.7612 25.5313C59.2155 25.8768 54.065 27.0714 49.5582 28.8242C44.8965 30.6345 40.942 33.0562 37.0023 36.9974C33.0597 40.9371 30.638 44.8916 28.8217 49.5518C27.0645 54.06 25.8684 59.2121 25.5288 66.7548C25.1921 74.3152 25.1035 76.7325 25.1035 95.982C25.1035 115.232 25.1892 117.64 25.5317 125.2C25.8788 132.746 27.0734 137.897 28.8247 142.403C30.6365 147.065 33.0582 151.02 36.9994 154.959C40.9376 158.902 44.892 161.329 49.5509 163.14C54.0605 164.893 59.2125 166.087 66.7567 166.433C74.3172 166.777 76.7315 166.861 95.9795 166.861C115.231 166.861 117.639 166.777 125.199 166.433C132.745 166.087 137.902 164.893 142.411 163.14C147.071 161.329 151.02 158.902 154.958 154.959C158.901 151.02 161.323 147.065 163.139 142.405C164.881 137.897 166.077 132.745 166.432 125.202C166.771 117.641 166.86 115.232 166.86 95.982C166.86 76.7325 166.771 74.3167 166.432 66.7562C166.077 59.2106 164.881 54.06 163.139 49.5533C161.323 44.8916 158.901 40.9371 154.958 36.9974C151.016 33.0548 147.073 30.6331 142.407 28.8242C137.888 27.0714 132.735 25.8768 125.189 25.5313C117.629 25.1872 115.222 25.103 95.9663 25.103H95.9869ZM89.6285 37.876C91.5156 37.8731 93.6213 37.876 95.9869 37.876C114.912 37.876 117.155 37.9439 124.628 38.2836C131.539 38.5996 135.289 39.7543 137.788 40.7245C141.095 42.0091 143.454 43.5449 145.933 46.0256C148.414 48.5064 149.949 50.869 151.237 54.1767C152.207 56.6722 153.363 60.4229 153.678 67.3336C154.018 74.8054 154.091 77.0499 154.091 95.9658C154.091 114.882 154.018 117.126 153.678 124.598C153.362 131.509 152.207 135.259 151.237 137.755C149.952 141.063 148.414 143.418 145.933 145.897C143.452 148.378 141.097 149.914 137.788 151.198C135.292 152.173 131.539 153.325 124.628 153.641C117.156 153.98 114.912 154.054 95.9869 154.054C77.0608 154.054 74.8177 153.98 67.3459 153.641C60.4352 153.322 56.6845 152.167 54.1846 151.197C50.8769 149.912 48.5143 148.376 46.0335 145.896C43.5527 143.415 42.017 141.058 40.7294 137.749C39.7592 135.253 38.603 131.503 38.2885 124.592C37.9489 117.12 37.8809 114.876 37.8809 95.948C37.8809 77.0204 37.9489 74.7877 38.2885 67.3159C38.6045 60.4052 39.7592 56.6545 40.7294 54.156C42.0141 50.8483 43.5527 48.4857 46.0335 46.0049C48.5143 43.5242 50.8769 41.9885 54.1846 40.7008C56.6831 39.7262 60.4352 38.5745 67.3459 38.257C73.8845 37.9617 76.4184 37.8731 89.6285 37.8583V37.876ZM133.822 49.6449C132.139 49.6449 130.495 50.1438 129.096 51.0785C127.697 52.0132 126.607 53.3418 125.963 54.8961C125.32 56.4505 125.151 58.1608 125.48 59.8108C125.808 61.4608 126.618 62.9763 127.808 64.1657C128.998 65.3551 130.514 66.1649 132.164 66.4928C133.814 66.8206 135.524 66.6518 137.078 66.0075C138.633 65.3633 139.961 64.2727 140.895 62.8736C141.829 61.4745 142.328 59.8297 142.327 58.1474C142.327 53.4517 138.517 49.6419 133.822 49.6419V49.6449ZM95.9869 59.5827C75.8854 59.5827 59.5876 75.8804 59.5876 95.982C59.5876 116.084 75.8854 132.374 95.9869 132.374C116.089 132.374 132.382 116.084 132.382 95.982C132.382 75.8804 116.087 59.5827 95.9854 59.5827H95.9869ZM95.9869 72.3557C109.035 72.3557 119.613 82.9329 119.613 95.982C119.613 109.03 109.035 119.608 95.9869 119.608C82.9378 119.608 72.3606 109.03 72.3606 95.982C72.3606 82.9329 82.9378 72.3557 95.9869 72.3557V72.3557Z" fill="white"/>
<defs>
<radialGradient id="paint0_radial" cx="0" cy="0" r="1" gradientUnits="userSpaceOnUse" gradientTransform="translate(51.0002 206.732) rotate(-90) scale(190.234 176.981)">
<stop stop-color="#FFDD55"/>
<stop offset="0.1" stop-color="#FFDD55"/>
<stop offset="0.5" stop-color="#FF543E"/>
<stop offset="1" stop-color="#C837AB"/>
</radialGradient>
<radialGradient id="paint1_radial" cx="0" cy="0" r="1" gradientUnits="userSpaceOnUse" gradientTransform="translate(-32.161 13.8276) rotate(78.6776) scale(85.0364 350.612)">
<stop stop-color="#3771C8"/>
<stop offset="0.128" stop-color="#3771C8"/>
<stop offset="1" stop-color="#6600FF" stop-opacity="0"/>
</radialGradient>
</defs>
</svg>
