<svg width="192" height="192" viewBox="0 0 192 192" fill="none" xmlns="http://www.w3.org/2000/svg">
<g clip-path="url(#clip0)">
<path d="M192 41.65H184.425C181.575 41.65 177.6 45.7375 177.6 48.3625V143.725C177.6 146.387 181.575 149.95 184.425 149.95H192V172.6H123.188V149.95H137.588V49.7125H136.913L103.275 172.6H77.25L44.025 49.7125H43.2V149.95H57.6V172.6H0V149.95H7.3875C10.425 149.95 14.4 146.387 14.4 143.725V48.3625C14.4 45.7375 10.425 41.65 7.3875 41.65H0V19H72.0375L95.6625 107.913H96.3375L120.188 19H192V41.65Z" fill="black"/>
</g>
<defs>
<clipPath id="clip0">
<rect width="191.995" height="192" fill="white"/>
</clipPath>
</defs>
</svg>
