<svg width="192" height="192" viewBox="0 0 192 192" fill="none" xmlns="http://www.w3.org/2000/svg">
<g clip-path="url(#clip0)">
<path d="M96 0C41.928 0 0 39.624 0 93.12C0 121.104 11.472 145.296 30.144 162C31.704 163.392 32.664 165.36 32.712 167.472L33.24 184.56C33.408 190.008 39.024 193.56 44.016 191.352L63.072 182.952C64.68 182.232 66.504 182.112 68.208 182.568C76.968 184.968 86.28 186.264 96 186.264C150.072 186.264 192 146.64 192 93.144C192 39.648 150.072 0 96 0Z" fill="url(#paint0_radial)"/>
<path d="M38.3521 120.36L66.5521 75.6243C71.0401 68.4963 80.6401 66.7443 87.3841 71.7843L109.824 88.6083C111.888 90.1443 114.72 90.1443 116.76 88.5843L147.048 65.5923C151.08 62.5203 156.36 67.3683 153.672 71.6643L125.448 116.376C120.96 123.504 111.36 125.256 104.616 120.216L82.1761 103.392C80.1121 101.856 77.2801 101.856 75.2401 103.416L44.9521 126.408C40.9201 129.48 35.6401 124.656 38.3521 120.36Z" fill="white"/>
</g>
<defs>
<radialGradient id="paint0_radial" cx="0" cy="0" r="1" gradientUnits="userSpaceOnUse" gradientTransform="translate(36.96 190.954) scale(209.203 209.203)">
<stop stop-color="#0099FF"/>
<stop offset="0.6098" stop-color="#A033FF"/>
<stop offset="0.9348" stop-color="#FF5280"/>
<stop offset="1" stop-color="#FF7061"/>
</radialGradient>
<clipPath id="clip0">
<rect width="192" height="192" fill="white"/>
</clipPath>
</defs>
</svg>
