<svg width="192" height="192" viewBox="0 0 192 192" fill="none" xmlns="http://www.w3.org/2000/svg">
<path d="M100.344 2.21631H113.387V19.6659C136.726 19.7968 160.044 19.4251 183.362 19.7968C188.335 19.2943 192.239 23.1559 191.781 28.129C192.151 71.0987 191.694 114.089 192 157.059C191.781 161.465 192.436 166.351 189.883 170.255C186.698 172.523 182.575 172.24 178.869 172.413C157.032 172.307 135.22 172.35 113.387 172.35V189.8H99.7556C66.5595 183.736 33.2726 178.175 0.010082 172.35C-0.0126025 121.464 0.010082 70.5752 0.010082 19.7096C33.4453 13.8639 66.9067 8.17187 100.345 2.21631H100.344Z" fill="#2A5699"/>
<path d="M113.387 26.2095H185.367V165.806H113.387V148.357H170.099V139.632H113.387V128.726H170.099V120.001H113.387V109.095H170.099V100.37H113.387V89.4644H170.099V80.7396H113.387V69.8335H170.099V61.1087H113.387V50.2027H170.099V41.4779H113.387V26.2095ZM45.072 64.7505C49.2163 64.5114 53.3606 64.3369 57.5049 64.1188C60.405 78.8428 63.3714 93.5423 66.5124 108.2C68.978 93.0625 71.7054 77.9686 74.342 62.8537C78.7044 62.7019 83.0668 62.4611 87.4083 62.1993C82.4788 83.3343 78.16 104.646 72.7716 125.65C69.1281 127.548 63.6751 125.562 59.3563 125.868C56.4544 111.43 53.0744 97.0759 50.4779 82.5718C47.9268 96.6623 44.6114 110.622 41.6885 124.627C37.5006 124.409 33.2918 124.147 29.0794 123.863C25.4604 104.668 21.2062 85.6045 17.8262 66.3663C21.5552 66.1918 25.3068 66.0382 29.0376 65.9074C31.2833 79.8008 33.8362 93.6313 35.7993 107.546C38.8792 93.2823 42.0183 79.0173 45.072 64.7505V64.7505Z" fill="white"/>
</svg>
