<svg width="192" height="192" viewBox="0 0 192 192" fill="none" xmlns="http://www.w3.org/2000/svg">
<g clip-path="url(#clip0)">
<path d="M119.842 40.7075V78.2638L132.966 86.5279C133.312 86.6289 134.062 86.6361 134.409 86.5279L190.894 48.4452C190.894 43.9382 186.69 40.7075 184.318 40.7075H119.842Z" fill="#0072C6"/>
<path d="M119.842 92.2754L131.82 100.503C133.507 101.744 135.541 100.503 135.541 100.503C133.514 101.744 190.902 63.625 190.902 63.625V132.651C190.902 140.165 186.092 143.317 180.683 143.317H119.834V92.2754H119.842Z" fill="#0072C6"/>
<path d="M57.8252 74.9609C53.7436 74.9609 50.4914 76.8791 48.09 80.7083C45.6887 84.5375 44.4844 89.607 44.4844 95.9169C44.4844 102.32 45.6887 107.383 48.09 111.104C50.4914 114.832 53.6427 116.685 57.5368 116.685C61.5534 116.685 64.7408 114.875 67.0917 111.255C69.4426 107.635 70.6252 102.609 70.6252 96.1837C70.6252 89.4844 69.4858 84.2707 67.1999 80.5425C64.9139 76.8214 61.7914 74.9609 57.8252 74.9609Z" fill="#0072C6"/>
<path d="M1 21.6338V168.563L112.775 192V0L1 21.6338ZM75.7953 119.938C71.0719 126.154 64.9135 129.269 57.3128 129.269C49.9068 129.269 43.8782 126.255 39.2125 120.233C34.554 114.205 32.2176 106.359 32.2176 96.6815C32.2176 86.4631 34.5829 78.199 39.3207 71.8891C44.0585 65.5793 50.3323 62.4207 58.1421 62.4207C65.5192 62.4207 71.4901 65.4351 76.0405 71.4781C80.598 77.5211 82.8767 85.4824 82.8767 95.369C82.8839 105.53 80.5186 113.722 75.7953 119.938Z" fill="#0072C6"/>
</g>
<defs>
<clipPath id="clip0">
<rect width="189.902" height="192" fill="white" transform="translate(1)"/>
</clipPath>
</defs>
</svg>
