<svg width="192" height="192" viewBox="0 0 192 192" fill="none" xmlns="http://www.w3.org/2000/svg">
<path d="M40.4774 121.376C40.4774 132.535 31.4654 141.554 20.3151 141.554C9.16475 141.554 0.152832 132.535 0.152832 121.376C0.152832 110.217 9.16475 101.198 20.3151 101.198H40.4774V121.376ZM50.5585 121.376C50.5585 110.217 59.5704 101.198 70.7207 101.198C81.8711 101.198 90.883 110.217 90.883 121.376V171.822C90.883 182.981 81.8711 192 70.7207 192C59.5704 192 50.5585 182.981 50.5585 171.822V121.376Z" fill="#E01E5A"/>
<path d="M70.7207 40.3566C59.5703 40.3566 50.5584 31.3375 50.5584 20.1783C50.5584 9.01909 59.5703 0 70.7207 0C81.871 0 90.8829 9.01909 90.8829 20.1783V40.3566H70.7207ZM70.7207 50.5987C81.871 50.5987 90.8829 59.6177 90.8829 70.777C90.8829 81.9362 81.871 90.9553 70.7207 90.9553H20.1623C9.01192 90.9553 0 81.9362 0 70.777C0 59.6177 9.01192 50.5987 20.1623 50.5987H70.7207Z" fill="#36C5F0"/>
<path d="M151.523 70.777C151.523 59.6177 160.535 50.5987 171.685 50.5987C182.835 50.5987 191.847 59.6177 191.847 70.777C191.847 81.9362 182.835 90.9553 171.685 90.9553H151.523V70.777ZM141.442 70.777C141.442 81.9362 132.43 90.9553 121.279 90.9553C110.129 90.9553 101.117 81.9362 101.117 70.777V20.1783C101.117 9.01909 110.129 0 121.279 0C132.43 0 141.442 9.01909 141.442 20.1783V70.777V70.777Z" fill="#2EB67D"/>
<path d="M121.279 151.644C132.43 151.644 141.442 160.663 141.442 171.822C141.442 182.981 132.43 192 121.279 192C110.129 192 101.117 182.981 101.117 171.822V151.644H121.279ZM121.279 141.554C110.129 141.554 101.117 132.535 101.117 121.376C101.117 110.217 110.129 101.198 121.279 101.198H171.838C182.988 101.198 192 110.217 192 121.376C192 132.535 182.988 141.554 171.838 141.554H121.279Z" fill="#ECB22E"/>
</svg>
