<svg width="512" height="512" viewBox="0 0 512 512" fill="none" xmlns="http://www.w3.org/2000/svg">
<path d="M436.561 207.478H436.083C430.889 207.472 425.909 205.409 422.236 201.741C418.564 198.074 416.498 193.101 416.492 187.914V181.233H358.195V180.279H417.447V187.914C417.453 192.765 419.353 197.423 422.744 200.897C426.135 204.371 430.749 206.388 435.605 206.518V180.279H449.463C451.363 180.277 453.185 179.522 454.528 178.18C455.872 176.838 456.628 175.019 456.63 173.121V100.112C456.628 98.2144 455.872 96.3951 454.528 95.0532C453.185 93.7113 451.363 92.9565 449.463 92.9544H266.928C265.028 92.9565 263.206 93.7113 261.862 95.0532C260.518 96.3951 259.763 98.2144 259.76 100.112V153.079H258.805V100.112C258.807 97.9614 259.664 95.8994 261.187 94.3787C262.71 92.8579 264.774 92.0024 266.928 92H449.463C451.616 92.0024 453.681 92.8579 455.204 94.3787C456.727 95.8994 457.583 97.9614 457.586 100.112V173.121C457.583 175.272 456.727 177.334 455.204 178.855C453.681 180.375 451.616 181.231 449.463 181.233H436.561V207.478Z" fill="#CCCCCC"/>
<path d="M419.349 116.103C419.289 114.563 418.634 113.106 417.523 112.038C416.411 110.97 414.928 110.372 413.386 110.372H303.005C301.421 110.372 299.901 111 298.781 112.119C297.661 113.237 297.032 114.754 297.032 116.336C297.032 117.918 297.661 119.435 298.781 120.554C299.901 121.673 301.421 122.301 303.005 122.301H413.386C414.969 122.299 416.487 121.67 417.607 120.552C418.726 119.434 419.356 117.918 419.359 116.336C419.36 116.258 419.357 116.18 419.349 116.103V116.103Z" fill="#CCCCCC"/>
<path d="M419.349 136.144C419.289 134.604 418.634 133.148 417.523 132.08C416.411 131.011 414.928 130.414 413.386 130.413H303.005C301.421 130.413 299.901 131.042 298.781 132.16C297.661 133.279 297.032 134.796 297.032 136.378C297.032 137.96 297.661 139.477 298.781 140.596C299.901 141.714 301.421 142.343 303.005 142.343H413.386C414.969 142.34 416.487 141.711 417.607 140.593C418.726 139.475 419.356 137.959 419.359 136.378C419.36 136.3 419.357 136.222 419.349 136.144V136.144Z" fill="#CCCCCC"/>
<path d="M419.349 156.186C419.289 154.646 418.634 153.19 417.523 152.122C416.411 151.053 414.928 150.456 413.386 150.455H303.005C302.129 150.455 301.264 150.647 300.472 151.019C299.679 151.39 298.977 151.93 298.417 152.602C298.172 152.9 297.954 153.219 297.768 153.557H350.55C352.45 153.559 354.272 154.314 355.615 155.656C356.959 156.998 357.715 158.817 357.717 160.715V162.385H413.386C414.969 162.382 416.487 161.753 417.607 160.635C418.726 159.517 419.356 158.001 419.359 156.42C419.36 156.342 419.357 156.264 419.349 156.186Z" fill="#CCCCCC"/>
<path d="M350.072 153.557H167.537C165.384 153.56 163.319 154.415 161.797 155.936C160.274 157.457 159.417 159.518 159.414 161.669V234.678C159.417 236.828 160.274 238.89 161.797 240.411C163.319 241.931 165.384 242.787 167.537 242.79H180.439V269.035H180.917C186.111 269.029 191.091 266.966 194.764 263.299C198.437 259.631 200.503 254.658 200.508 249.47V242.79H350.072C352.225 242.787 354.29 241.931 355.813 240.411C357.335 238.89 358.192 236.828 358.195 234.678V161.669C358.192 159.518 357.335 157.457 355.813 155.936C354.29 154.415 352.225 153.56 350.072 153.557V153.557ZM357.24 234.678C357.237 236.575 356.481 238.395 355.138 239.736C353.794 241.078 351.972 241.833 350.072 241.835H199.553V249.47C199.546 254.322 197.646 258.979 194.255 262.453C190.864 265.927 186.251 267.944 181.395 268.076V241.835H167.537C165.637 241.833 163.815 241.078 162.472 239.736C161.128 238.395 160.372 236.575 160.37 234.678V161.669C160.372 159.771 161.128 157.952 162.472 156.61C163.815 155.268 165.637 154.513 167.537 154.511H350.072C351.972 154.513 353.794 155.268 355.138 156.61C356.481 157.952 357.237 159.771 357.24 161.669V234.678Z" fill="#3F3D56"/>
<path d="M313.995 171.928H203.615C202.072 171.929 200.589 172.526 199.477 173.595C198.366 174.663 197.711 176.12 197.651 177.659C197.643 177.737 197.64 177.815 197.642 177.893C197.644 179.474 198.274 180.99 199.393 182.108C200.513 183.226 202.031 183.856 203.615 183.858H313.995C315.579 183.858 317.099 183.229 318.219 182.111C319.339 180.992 319.968 179.475 319.968 177.893C319.968 176.311 319.339 174.794 318.219 173.675C317.099 172.557 315.579 171.928 313.995 171.928Z" fill="#FF8F00"/>
<path d="M313.995 191.97H203.615C202.072 191.971 200.589 192.568 199.477 193.636C198.366 194.705 197.711 196.161 197.651 197.701C197.643 197.778 197.64 197.856 197.642 197.935C197.644 199.516 198.274 201.032 199.393 202.15C200.513 203.268 202.031 203.897 203.615 203.899H313.995C315.579 203.899 317.099 203.271 318.219 202.152C319.339 201.034 319.968 199.516 319.968 197.935C319.968 196.353 319.339 194.835 318.219 193.717C317.099 192.598 315.579 191.97 313.995 191.97Z" fill="#FF8F00"/>
<path d="M313.995 212.012H203.615C202.072 212.013 200.589 212.61 199.477 213.678C198.366 214.747 197.711 216.203 197.651 217.743C197.643 217.82 197.64 217.898 197.642 217.977C197.644 219.558 198.274 221.074 199.393 222.192C200.513 223.31 202.031 223.939 203.615 223.941H313.995C315.579 223.941 317.099 223.313 318.219 222.194C319.339 221.076 319.968 219.558 319.968 217.977C319.968 216.395 319.339 214.877 318.219 213.759C317.099 212.64 315.579 212.012 313.995 212.012Z" fill="#FF8F00"/>
<path d="M138.383 317.574C138.167 317.574 137.952 317.56 137.739 317.533C137.004 317.443 136.296 317.199 135.662 316.817C135.028 316.435 134.482 315.923 134.059 315.315C133.637 314.707 133.348 314.017 133.211 313.29C133.075 312.563 133.094 311.816 133.267 311.096C133.307 310.929 133.357 310.765 133.415 310.603L117.472 290.22C116.77 289.316 116.379 288.21 116.356 287.066C116.334 285.922 116.682 284.801 117.348 283.87L122.932 276.124L130.231 281.747L127.299 286.778L138.912 307.106C139.145 307.127 139.377 307.165 139.605 307.218C140.856 307.519 141.954 308.267 142.69 309.321C143.426 310.375 143.749 311.662 143.598 312.938C143.447 314.214 142.833 315.391 141.872 316.245C140.911 317.1 139.669 317.572 138.383 317.574L138.383 317.574Z" fill="#A0616A"/>
<path d="M165.974 414.155L171.832 414.154L174.619 391.589L165.973 391.59L165.974 414.155Z" fill="#A0616A"/>
<path d="M183.13 419.586L164.718 419.587L164.718 412.483L176.016 412.482C176.95 412.482 177.875 412.666 178.738 413.023C179.601 413.38 180.386 413.903 181.046 414.563C181.707 415.223 182.231 416.006 182.588 416.867C182.946 417.729 183.13 418.653 183.13 419.586V419.586Z" fill="#2F2E41"/>
<path d="M117.712 414.155L123.57 414.154L126.357 391.589L117.711 391.59L117.712 414.155Z" fill="#A0616A"/>
<path d="M134.868 419.586L116.457 419.587L116.456 412.483L127.754 412.482C128.688 412.482 129.613 412.666 130.477 413.023C131.34 413.38 132.124 413.903 132.784 414.563C133.445 415.223 133.969 416.006 134.327 416.867C134.684 417.729 134.868 418.653 134.868 419.586V419.586Z" fill="#2F2E41"/>
<path d="M121.308 277.223L134.46 282.214L137.671 273.307C138.097 272.124 138.091 270.829 137.654 269.65C137.217 268.471 136.376 267.485 135.281 266.865V266.865C134.173 266.238 132.877 266.027 131.627 266.271C130.378 266.515 129.256 267.197 128.466 268.194L121.308 277.223Z" fill="#FF8F00"/>
<path d="M164.932 395.939C164.407 395.939 163.897 395.764 163.483 395.442C163.068 395.12 162.772 394.669 162.642 394.161C156.084 369.104 149.424 356.544 142.283 342.021C142.105 341.659 141.815 341.363 141.457 341.177C141.098 340.991 140.689 340.923 140.29 340.985C139.891 341.046 139.521 341.233 139.236 341.519C138.95 341.805 138.763 342.174 138.702 342.573L129.851 393.655C129.762 394.225 129.469 394.743 129.027 395.113C128.584 395.484 128.022 395.681 127.445 395.668L114.303 395.348C113.984 395.341 113.67 395.27 113.38 395.139C113.089 395.008 112.828 394.819 112.613 394.584C112.385 394.359 112.211 394.086 112.104 393.784C111.996 393.483 111.957 393.162 111.99 392.843C117.942 353.645 122.628 318.164 131.64 307.34C131.89 307.103 132.176 306.909 132.488 306.764L132.215 306.722C132.137 306.71 131.929 306.678 131.926 306.469L131.923 306.267L132.129 306.228C132.457 306.217 132.785 306.266 133.095 306.373L153.663 309.534C154.233 309.622 154.751 309.914 155.122 310.355C155.492 310.796 155.69 311.356 155.677 311.932C156.795 317.156 158.509 325.041 158.662 325.429C169.636 346.264 173.894 362.67 178.32 390.685C178.412 391.279 178.275 391.886 177.937 392.383C177.599 392.88 177.085 393.232 176.499 393.366L165.468 395.879C165.292 395.919 165.113 395.939 164.932 395.939V395.939Z" fill="#2F2E41"/>
<path d="M153.39 312.951C153.205 312.951 153.021 312.929 152.842 312.886L132.592 308.076C132.281 308.003 131.989 307.868 131.733 307.679C131.477 307.489 131.262 307.249 131.103 306.974C130.938 306.689 130.833 306.374 130.793 306.047C130.753 305.72 130.78 305.389 130.871 305.073C133.055 297.513 130.192 288.141 126.772 279.14C126.337 276.508 126.763 273.806 127.987 271.434C129.211 269.063 131.168 267.149 133.567 265.975L133.622 265.949L144.254 266.485C145.999 266.942 147.619 267.788 148.99 268.96C150.361 270.132 151.448 271.599 152.17 273.251C156.268 282.828 157.441 295.118 155.756 310.822C155.695 311.406 155.419 311.946 154.982 312.339C154.545 312.732 153.978 312.95 153.39 312.951L153.39 312.951Z" fill="#FF8F00"/>
<path d="M156.114 291.089C155.033 291.091 153.978 290.756 153.097 290.131L145.254 284.549L150.85 277.232L155.901 280.137L176.201 268.442C176.221 268.209 176.258 267.978 176.31 267.749C176.548 266.739 177.081 265.821 177.841 265.113C178.601 264.405 179.554 263.937 180.58 263.77C181.606 263.603 182.659 263.743 183.605 264.173C184.551 264.604 185.348 265.304 185.896 266.187C186.443 267.07 186.716 268.094 186.68 269.132C186.644 270.169 186.301 271.173 185.694 272.016C185.087 272.859 184.243 273.503 183.27 273.867C182.296 274.231 181.236 274.298 180.224 274.06C180.057 274.02 179.891 273.972 179.729 273.915L159.338 289.979C158.418 290.7 157.283 291.091 156.114 291.089Z" fill="#A0616A"/>
<path d="M142.766 286.827L154.4 278.926L148.932 271.193C148.206 270.166 147.14 269.428 145.922 269.11C144.704 268.792 143.413 268.915 142.277 269.456V269.456C141.127 270.003 140.212 270.942 139.695 272.105C139.179 273.267 139.095 274.575 139.46 275.794L142.766 286.827Z" fill="#FF8F00"/>
<path d="M137.17 261.983C143.652 261.983 148.907 256.736 148.907 250.263C148.907 243.79 143.652 238.543 137.17 238.543C130.689 238.543 125.434 243.79 125.434 250.263C125.434 256.736 130.689 261.983 137.17 261.983Z" fill="#A0616A"/>
<path d="M138.245 262.254C136.484 262.247 135.125 260.395 135.204 258.637C135.283 256.88 136.465 255.334 137.889 254.298C139.313 253.263 140.983 252.632 142.571 251.871C144.159 251.109 145.733 250.16 146.713 248.698C147.306 247.742 147.659 246.657 147.744 245.536C147.829 244.414 147.643 243.289 147.202 242.254C146.29 240.185 144.723 238.471 142.742 237.375C139.8 235.655 136.317 235.106 132.987 235.835C129.656 236.565 126.723 238.52 124.772 241.312L122.762 246.78C120.713 249.24 120.388 252.894 121.647 255.837C122.907 258.779 125.588 260.993 128.615 262.046C131.685 263.031 134.972 263.129 138.095 262.329" fill="#2F2E41"/>
<path d="M125.564 244.706C124.76 243.468 123.663 242.447 122.371 241.732C121.078 241.017 119.629 240.631 118.152 240.607C116.674 240.583 115.214 240.923 113.899 241.596C112.584 242.269 111.455 243.255 110.612 244.467C109.2 246.495 108.687 248.995 107.716 251.267C105.958 255.336 102.76 258.615 98.7344 260.478C102.26 261.097 105.772 259.306 108.59 257.103C111.408 254.899 113.887 252.21 117.043 250.524C119.526 249.203 122.316 248.564 125.127 248.67" fill="#2F2E41"/>
<path d="M452.807 266.649C468.378 266.649 481 254.044 481 238.495C481 222.946 468.378 210.341 452.807 210.341C437.237 210.341 424.615 222.946 424.615 238.495C424.615 254.044 437.237 266.649 452.807 266.649Z" fill="#E6E6E6"/>
<path d="M455.496 258.562C454.348 258.53 452.919 258.49 451.819 257.687C451.491 257.438 451.222 257.121 451.03 256.757C450.838 256.393 450.728 255.992 450.708 255.581C450.688 255.289 450.736 254.997 450.848 254.726C450.96 254.456 451.133 254.215 451.354 254.023C451.682 253.778 452.066 253.62 452.471 253.562C452.876 253.503 453.289 253.547 453.673 253.69L452.735 246.849L453.423 246.754L454.525 254.797L453.951 254.533C453.285 254.228 452.37 254.073 451.802 254.553C451.662 254.678 451.554 254.834 451.484 255.008C451.415 255.182 451.387 255.37 451.402 255.556C451.418 255.862 451.501 256.161 451.644 256.432C451.786 256.703 451.986 256.94 452.228 257.127C453.085 257.752 454.224 257.832 455.516 257.869L455.496 258.562Z" fill="#3F3D56"/>
<path d="M449.333 247.438H445.592V248.132H449.333V247.438Z" fill="#3F3D56"/>
<path d="M461.14 247.438H457.399V248.132H461.14V247.438Z" fill="#3F3D56"/>
<path d="M439.093 237.861C436.08 237.518 433.747 234.635 433.491 231.711C433.186 228.232 435.215 224.927 437.999 222.975C440.91 220.933 444.536 220.081 448.045 219.893C454.891 219.553 461.618 221.767 466.919 226.106C469.548 228.286 472.004 231.064 472.935 234.42C473.743 237.334 473.085 240.635 470.738 242.676C470.158 243.176 469.48 243.551 468.747 243.776C468.014 244.001 467.242 244.073 466.481 243.985C464.66 243.796 462.979 242.84 461.525 241.784C458.696 239.73 456.373 236.868 452.926 235.795C450.399 235.008 447.119 235.7 445.575 237.983C445.224 238.505 444.997 239.1 444.911 239.723C444.879 239.856 444.898 239.996 444.966 240.115C445.034 240.234 445.144 240.322 445.274 240.363C445.408 240.399 445.55 240.381 445.669 240.313C445.789 240.245 445.878 240.132 445.915 240C446.321 237.125 449.86 236.052 452.344 236.709C455.966 237.666 458.397 240.893 461.368 242.944C462.906 244.089 464.718 244.811 466.623 245.038C468.275 245.168 469.914 244.665 471.208 243.632C473.747 241.63 474.718 238.187 474.156 235.088C473.506 231.498 471.087 228.422 468.433 226.04C463.051 221.262 456.065 218.685 448.866 218.822C445.194 218.906 441.362 219.663 438.199 221.601C435.131 223.481 432.759 226.626 432.449 230.282C432.176 233.5 433.905 236.866 436.873 238.275C437.573 238.606 438.323 238.818 439.093 238.901C439.758 238.977 439.752 237.936 439.093 237.861L439.093 237.861Z" fill="#3F3D56"/>
</svg>
