<svg width="192" height="192" viewBox="0 0 192 192" fill="none" xmlns="http://www.w3.org/2000/svg">
<g clip-path="url(#clip0)">
<path d="M13.646 95.9976C13.646 128.595 32.5901 156.766 60.0605 170.116L20.7761 62.4814C16.2066 72.7237 13.646 84.0582 13.646 95.9976V95.9976Z" fill="#464342"/>
<path d="M151.597 91.8419C151.597 81.6639 147.941 74.6153 144.805 69.1291C140.63 62.3453 136.717 56.6005 136.717 49.8167C136.717 42.2463 142.459 35.1992 150.547 35.1992C150.912 35.1992 151.258 35.2447 151.614 35.2651C136.962 21.8417 117.441 13.646 96.0007 13.646C67.2296 13.646 41.917 28.4076 27.1914 50.7663C29.1236 50.8243 30.9445 50.8651 32.4912 50.8651C41.1053 50.8651 54.4393 49.8198 54.4393 49.8198C58.8788 49.5581 59.4022 56.0786 54.9674 56.6036C54.9674 56.6036 50.506 57.1286 45.5416 57.3887L75.5318 146.593L93.5545 92.5408L80.7235 57.3856C76.2887 57.1254 72.0875 56.6005 72.0875 56.6005C67.6496 56.3403 68.1698 49.555 72.6077 49.8167C72.6077 49.8167 86.2082 50.8619 94.3004 50.8619C102.913 50.8619 116.249 49.8167 116.249 49.8167C120.691 49.555 121.213 56.0755 116.777 56.6005C116.777 56.6005 112.306 57.1254 107.351 57.3856L137.112 145.915L145.327 118.465C148.887 107.074 151.597 98.8921 151.597 91.8419V91.8419Z" fill="#464342"/>
<path d="M97.4456 103.201L72.7363 175.002C80.114 177.171 87.9164 178.357 96.0008 178.357C105.591 178.357 114.788 176.699 123.349 173.689C123.128 173.336 122.927 172.962 122.763 172.554L97.4456 103.201Z" fill="#464342"/>
<path d="M168.264 56.4858C168.618 59.1091 168.819 61.9251 168.819 64.9542C168.819 73.3113 167.258 82.7058 162.557 94.4524L137.401 167.184C161.885 152.907 178.353 126.381 178.353 95.9991C178.354 81.6809 174.697 68.2168 168.264 56.4858V56.4858Z" fill="#464342"/>
<path d="M96.0008 0C43.0673 0 0 43.0642 0 95.9976C0 148.937 43.0673 192 96.0008 192C148.933 192 192.006 148.937 192.006 95.9976C192.005 43.0642 148.933 0 96.0008 0ZM96.0008 187.6C45.4947 187.6 4.40185 146.507 4.40185 95.9976C4.40185 45.4915 45.4931 4.40185 96.0008 4.40185C146.505 4.40185 187.595 45.4915 187.595 95.9976C187.595 146.507 146.505 187.6 96.0008 187.6Z" fill="#464342"/>
</g>
<defs>
<clipPath id="clip0">
<rect width="191.995" height="192" fill="white"/>
</clipPath>
</defs>
</svg>
